<svg width="362" height="344" xmlns="http://www.w3.org/2000/svg" xmlns:xlink="http://www.w3.org/1999/xlink" xml:space="preserve" overflow="hidden"><defs><clipPath id="clip0"><rect x="238" y="1154" width="362" height="344"/></clipPath></defs><g clip-path="url(#clip0)" transform="translate(-238 -1154)"><path d="M349 1197 376 1197 376 1261 349 1261Z" stroke="#FFFFFF" stroke-width="13.75" stroke-linejoin="round" stroke-miterlimit="10" fill="#E20074" fill-rule="evenodd"/><path d="M463 1197 490 1197 490 1261 463 1261Z" stroke="#FFFFFF" stroke-width="13.75" stroke-linejoin="round" stroke-miterlimit="10" fill="#E20074" fill-rule="evenodd"/><path d="M433 1171.97C432.853 1165.9 426.877 1161 419.5 1161 412.123 1161 406 1166.02 406 1172.21 406 1172.4 406 1491 406 1491L433 1491 433 1171.97Z" stroke="#FFFFFF" stroke-width="13.75" stroke-linejoin="round" stroke-miterlimit="10" fill="#E20074" fill-rule="evenodd"/><path d="M394 1208 444 1208 444 1274 394 1274Z" stroke="#FFFFFF" stroke-width="13.75" stroke-linejoin="round" stroke-miterlimit="10" fill="#E20074" fill-rule="evenodd"/><path d="M543 1184C567 1204.44 567 1237.56 543 1258" stroke="#FFFFFF" stroke-width="13.75" stroke-linecap="round" stroke-linejoin="round" stroke-miterlimit="10" fill="none" fill-rule="evenodd"/><path d="M559 1272C592.334 1243.54 592.334 1197.46 559 1169" stroke="#FFFFFF" stroke-width="13.75" stroke-linecap="round" stroke-linejoin="round" stroke-miterlimit="10" fill="none" fill-rule="evenodd"/><path d="M526 1199C540.667 1211.13 540.667 1230.81 526 1243" stroke="#FFFFFF" stroke-width="13.75" stroke-linecap="round" stroke-linejoin="round" stroke-miterlimit="10" fill="none" fill-rule="evenodd"/><path d="M543 1258C567 1237.56 567 1204.44 543 1184" stroke="#FFFFFF" stroke-width="13.75" stroke-linecap="round" stroke-linejoin="round" stroke-miterlimit="10" fill="none" fill-rule="evenodd"/><path d="M526 1243C540.667 1230.87 540.667 1211.19 526 1199" stroke="#FFFFFF" stroke-width="13.75" stroke-linecap="round" stroke-linejoin="round" stroke-miterlimit="10" fill="none" fill-rule="evenodd"/><path d="M296 1258C272 1237.84 272 1205.16 296 1185" stroke="#FFFFFF" stroke-width="13.75" stroke-linecap="round" stroke-linejoin="round" stroke-miterlimit="10" fill="none" fill-rule="evenodd"/><path d="M280 1170C245.333 1198.46 245.333 1244.6 280 1273" stroke="#FFFFFF" stroke-width="13.75" stroke-linecap="round" stroke-linejoin="round" stroke-miterlimit="10" fill="none" fill-rule="evenodd"/><path d="M313 1243C298.333 1230.87 298.333 1211.19 313 1199" stroke="#FFFFFF" stroke-width="13.75" stroke-linecap="round" stroke-linejoin="round" stroke-miterlimit="10" fill="none" fill-rule="evenodd"/><path d="M296 1185C272 1205.16 272 1237.9 296 1258" stroke="#FFFFFF" stroke-width="13.75" stroke-linecap="round" stroke-linejoin="round" stroke-miterlimit="10" fill="none" fill-rule="evenodd"/><path d="M313 1199C298.333 1211.19 298.333 1230.81 313 1243" stroke="#FFFFFF" stroke-width="13.75" stroke-linecap="round" stroke-linejoin="round" stroke-miterlimit="10" fill="none" fill-rule="evenodd"/></g></svg>