<svg width="278" height="278" xmlns="http://www.w3.org/2000/svg" xmlns:xlink="http://www.w3.org/1999/xlink" xml:space="preserve" overflow="hidden"><defs><clipPath id="clip0"><rect x="1590" y="1055" width="278" height="278"/></clipPath></defs><g clip-path="url(#clip0)" transform="translate(-1590 -1055)"><path d="M1803.32 1212 1803.32 1192.05C1814.86 1189.49 1819.51 1185.12 1825.67 1179.48L1843.7 1189.5 1861 1159.52 1843.65 1149.53C1845.59 1140.76 1845.4 1132.58 1843.62 1124.49L1860.84 1114.5 1843.37 1084.51 1825.66 1094.53C1819.51 1088.88 1814.86 1084.52 1803.32 1081.95L1803.32 1062 1768.69 1062 1768.69 1081.95C1757.15 1084.52 1752.5 1088.88 1746.35 1094.53L1728.65 1084.51 1711.16 1114.49 1728.38 1124.48C1726.6 1132.58 1726.41 1140.76 1728.35 1149.52L1711 1159.51 1728.3 1189.49 1746.33 1179.47C1752.48 1185.12 1757.14 1189.49 1768.68 1192.04L1768.68 1212 1803.32 1212Z" stroke="#FFF" stroke-width="13.75" stroke-linejoin="round" stroke-miterlimit="10" fill="none" fill-rule="evenodd"/><path d="M1688.7 1326 1688.7 1306.18C1700.17 1303.64 1704.79 1299.29 1710.91 1293.7L1728.82 1303.65 1746 1273.87 1728.77 1263.95C1730.7 1255.24 1730.5 1247.11 1728.73 1239.08L1745.84 1229.15 1728.47 1199.37 1710.89 1209.32C1704.79 1203.71 1700.17 1199.37 1688.7 1196.82L1688.7 1177 1654.31 1177 1654.31 1196.82C1642.85 1199.37 1638.23 1203.71 1632.11 1209.31L1614.53 1199.36 1597.16 1229.14 1614.27 1239.06C1612.5 1247.11 1612.3 1255.24 1614.23 1263.94L1597 1273.86 1614.18 1303.64 1632.09 1293.69C1638.23 1299.29 1642.85 1303.64 1654.31 1306.18L1654.31 1326 1688.7 1326Z" stroke="#FFF" stroke-width="13.75" stroke-linejoin="round" stroke-miterlimit="10" fill="none" fill-rule="evenodd"/><path d="M1809 1137C1809 1149.7 1798.7 1160 1786 1160 1773.3 1160 1763 1149.7 1763 1137 1763 1124.3 1773.3 1114 1786 1114 1798.7 1114 1809 1124.3 1809 1137Z" stroke="#FFF" stroke-width="13.75" stroke-linejoin="round" stroke-miterlimit="10" fill="none" fill-rule="evenodd"/><path d="M1694 1252C1694 1264.7 1683.7 1275 1671 1275 1658.3 1275 1648 1264.7 1648 1252 1648 1239.3 1658.3 1229 1671 1229 1683.7 1229 1694 1239.3 1694 1252Z" stroke="#FFF" stroke-width="13.75" stroke-linejoin="round" stroke-miterlimit="10" fill="none" fill-rule="evenodd"/></g></svg>