<svg width="344" height="344" xmlns="http://www.w3.org/2000/svg" xmlns:xlink="http://www.w3.org/1999/xlink" xml:space="preserve" overflow="hidden"><defs><clipPath id="clip0"><rect x="1606" y="1164" width="344" height="344"/></clipPath></defs><g clip-path="url(#clip0)" transform="translate(-1606 -1164)"><path d="M1943 1265.29C1943 1273.94 1935.98 1281 1927.29 1281L1628.71 1281C1620.02 1281 1613 1273.94 1613 1265.29L1613 1186.71C1613 1178.04 1620.02 1171 1628.71 1171L1927.29 1171C1935.98 1171 1943 1178.04 1943 1186.71L1943 1265.29Z" stroke="#FFF" stroke-width="13.75" stroke-linecap="round" stroke-linejoin="round" stroke-miterlimit="10" fill="none" fill-rule="evenodd"/><path d="M1731 1250 1888 1250" stroke="#FFF" stroke-width="13.75" stroke-linecap="round" stroke-linejoin="round" stroke-miterlimit="10" fill="none" fill-rule="evenodd"/><path d="M1731 1219 1888 1219" stroke="#FFF" stroke-width="13.75" stroke-linecap="round" stroke-linejoin="round" stroke-miterlimit="10" fill="none" fill-rule="evenodd"/><path d="M1684 1226.5C1684 1235.06 1677.06 1242 1668.5 1242 1659.94 1242 1653 1235.06 1653 1226.5 1653 1217.94 1659.94 1211 1668.5 1211 1677.06 1211 1684 1217.94 1684 1226.5Z" stroke="#FFF" stroke-width="13.75" stroke-linecap="round" stroke-linejoin="round" stroke-miterlimit="10" fill="none" fill-rule="evenodd"/><path d="M1943 1375.29C1943 1383.94 1935.98 1391 1927.29 1391L1628.71 1391C1620.02 1391 1613 1383.94 1613 1375.29L1613 1296.71C1613 1288.04 1620.02 1281 1628.71 1281L1927.29 1281C1935.98 1281 1943 1288.04 1943 1296.71L1943 1375.29Z" stroke="#FFF" stroke-width="13.75" stroke-linecap="round" stroke-linejoin="round" stroke-miterlimit="10" fill="none" fill-rule="evenodd"/><path d="M1731 1360 1888 1360" stroke="#FFF" stroke-width="13.75" stroke-linecap="round" stroke-linejoin="round" stroke-miterlimit="10" fill="none" fill-rule="evenodd"/><path d="M1731 1329 1888 1329" stroke="#FFF" stroke-width="13.75" stroke-linecap="round" stroke-linejoin="round" stroke-miterlimit="10" fill="none" fill-rule="evenodd"/><path d="M1684 1336.5C1684 1345.06 1677.06 1352 1668.5 1352 1659.94 1352 1653 1345.06 1653 1336.5 1653 1327.94 1659.94 1321 1668.5 1321 1677.06 1321 1684 1327.94 1684 1336.5Z" stroke="#FFF" stroke-width="13.75" stroke-linecap="round" stroke-linejoin="round" stroke-miterlimit="10" fill="none" fill-rule="evenodd"/><path d="M1943 1485.29C1943 1493.94 1935.98 1501 1927.29 1501L1628.71 1501C1620.02 1501 1613 1493.94 1613 1485.29L1613 1406.71C1613 1398.04 1620.02 1391 1628.71 1391L1927.29 1391C1935.98 1391 1943 1398.04 1943 1406.71L1943 1485.29Z" stroke="#FFF" stroke-width="13.75" stroke-linecap="round" stroke-linejoin="round" stroke-miterlimit="10" fill="none" fill-rule="evenodd"/><path d="M1731 1470 1888 1470" stroke="#FFF" stroke-width="13.75" stroke-linecap="round" stroke-linejoin="round" stroke-miterlimit="10" fill="none" fill-rule="evenodd"/><path d="M1731 1439 1888 1439" stroke="#FFF" stroke-width="13.75" stroke-linecap="round" stroke-linejoin="round" stroke-miterlimit="10" fill="none" fill-rule="evenodd"/><path d="M1684 1446.5C1684 1455.06 1677.06 1462 1668.5 1462 1659.94 1462 1653 1455.06 1653 1446.5 1653 1437.94 1659.94 1431 1668.5 1431 1677.06 1431 1684 1437.94 1684 1446.5Z" stroke="#FFF" stroke-width="13.75" stroke-linecap="round" stroke-linejoin="round" stroke-miterlimit="10" fill="none" fill-rule="evenodd"/></g></svg>