<?xml version="1.0" encoding="UTF-8"?>
<svg id="Layer_2" data-name="Layer 2" xmlns="http://www.w3.org/2000/svg" viewBox="0 0 192 192">
  <defs>
    <style>
      .cls-1, .cls-2, .cls-3 {
        fill: none;
      }

      .cls-2 {
        stroke-dasharray: 0 0 6.22 6.22;
      }

      .cls-2, .cls-3 {
        stroke: #FFF;
        stroke-linecap: round;
        stroke-miterlimit: 10;
        stroke-width: 4px;
      }
    </style>
  </defs>
  <g id="Icons_on_White_Black_" data-name="Icons on White (Black)">
    <g id="Route_Optimization_on_White_Black_" data-name="Route Optimization on White (Black)">
      <rect class="cls-1" width="192" height="192"/>
      <g>
        <g>
          <path class="cls-3" d="M46.36,97.57h-3.13"/>
          <path class="cls-2" d="M37.01,97.57h-2.6c-15.17,0-15.09,21.38,.43,21.38h55.14c13.88,0,13.18,20.92,0,20.92h-26.3c-14.41,0-14.85,22.46,0,22.46s55.27,.55,70.87,.77"/>
          <path class="cls-3" d="M137.67,163.15c2,.03,3.12,.05,3.12,.05"/>
        </g>
        <path d="M46.9,28.81c-11.04,0-19.68,8.95-19.68,20.37,0,9.81,13.72,30.45,16.47,34.49,.72,1.05,1.9,1.69,3.17,1.7h.04c1.26,0,2.44-.61,3.17-1.64,2.87-4.04,17.2-24.71,17.2-34.56,0-11.23-9.14-20.37-20.37-20.37Zm.35,29.69c-5.37,0-9.72-4.35-9.72-9.72s4.35-9.72,9.72-9.72,9.72,4.35,9.72,9.72-4.35,9.72-9.72,9.72Z"/>
        <path d="M141.53,76.62c-14.81,0-26.42,12.01-26.42,27.35,0,13.16,18.41,40.88,22.1,46.3,.96,1.41,2.55,2.26,4.26,2.28h.05c1.69,0,3.27-.82,4.25-2.2,3.86-5.43,23.1-33.17,23.1-46.39,0-15.08-12.27-27.35-27.35-27.35Zm.47,39.86c-7.21,0-13.05-5.84-13.05-13.05s5.84-13.05,13.05-13.05,13.05,5.84,13.05,13.05-5.84,13.05-13.05,13.05Z"/>
      </g>
    </g>
  </g>
</svg>